<?xml version="1.0" encoding="utf-8" ?>
<svg baseProfile="full" height="1040px" version="1.1" width="2100px" xmlns="http://www.w3.org/2000/svg" xmlns:ev="http://www.w3.org/2001/xml-events" xmlns:xlink="http://www.w3.org/1999/xlink"><defs><style type="text/css"><![CDATA[
        .frame { fill: lightgray; stroke: black; stroke-width: 2; }
        .lumber { fill: burlywood; stroke: black; stroke-width: 2; }
        .dimension-line { stroke: red; stroke-width: 1; fill: none; }
        .dimension-text { font-family: Arial; font-size: 14px; fill: red; }
        .label-text { font-family: Arial; font-size: 12px; fill: black; }
        .rivnut-hole { fill: none; stroke: blue; stroke-width: 1; }
        .center-line { stroke: gray; stroke-width: 1; stroke-dasharray: 5,5; }
    ]]></style></defs><rect class="frame" height="1900" width="40" x="100" y="100" /><rect class="frame" height="1900" width="40" x="900" y="100" /><rect class="lumber" height="70.0" width="760" x="140" y="100" /><rect class="lumber" height="70.0" width="760" x="140" y="1930.0" /><line class="dimension-line" x1="100" x2="140" y1="2040" y2="2040" /><text class="dimension-text" text-anchor="middle" x="120.0" y="2035">95.00"</text><line class="dimension-line" x1="1060" x2="1060" y1="100" y2="940" /><text class="dimension-text" x="1070" y="520.0">42.00"</text><line class="dimension-line" x1="140" x2="900" y1="1050.0" y2="1050.0" /><text class="dimension-text" text-anchor="middle" x="520.0" y="1040.0">38.00" (inside)</text><circle class="rivnut-hole" cx="120.0" cy="300" r="3" /><text class="label-text" x="130.0" y="305">M12</text><circle class="rivnut-hole" cx="920.0" cy="300" r="3" /><circle class="rivnut-hole" cx="120.0" cy="700" r="3" /><text class="label-text" x="130.0" y="705">M12</text><circle class="rivnut-hole" cx="920.0" cy="700" r="3" /><circle class="rivnut-hole" cx="120.0" cy="1100" r="3" /><text class="label-text" x="130.0" y="1105">M12</text><circle class="rivnut-hole" cx="920.0" cy="1100" r="3" /><circle class="rivnut-hole" cx="120.0" cy="1500" r="3" /><text class="label-text" x="130.0" y="1505">M12</text><circle class="rivnut-hole" cx="920.0" cy="1500" r="3" /><circle class="rivnut-hole" cx="120.0" cy="1900" r="3" /><text class="label-text" x="130.0" y="1905">M12</text><circle class="rivnut-hole" cx="920.0" cy="1900" r="3" /><text style="font-family: Arial; font-size: 20px; font-weight: bold;" x="100" y="60">Y-FRAME TOP VIEW</text><text style="font-family: Arial; font-size: 12px;" x="100" y="80">Scale: 1:1 at 20px/inch</text><text style="font-family: Arial; font-size: 11px;" x="1000" y="100">MATERIALS:</text><text style="font-family: Arial; font-size: 11px;" x="1000" y="115">- Steel tubes: 2×3, 14g, 95" long (2 qty)</text><text style="font-family: Arial; font-size: 11px;" x="1000" y="130">- Lumber: 2×4, 38" long (2 qty)</text><text style="font-family: Arial; font-size: 11px;" x="1000" y="145">- L-brackets: 8 qty (2 per corner)</text><text style="font-family: Arial; font-size: 11px;" x="1000" y="160">- M12 leveling feet: 8 qty (4 per tube)</text><text style="font-family: Arial; font-size: 11px;" x="1000" y="175">- M6 rivnuts: ~60 qty (for Y-rails)</text><text style="font-family: Arial; font-size: 11px;" x="1000" y="190" /><text style="font-family: Arial; font-size: 11px;" x="1000" y="205">NOTES:</text><text style="font-family: Arial; font-size: 11px;" x="1000" y="220">- Tubes oriented vertically (3" height)</text><text style="font-family: Arial; font-size: 11px;" x="1000" y="235">- Inside spacing: 38.00"</text><text style="font-family: Arial; font-size: 11px;" x="1000" y="250">- Leveling feet spaced ~20" apart</text><text style="font-family: Arial; font-size: 11px;" x="1000" y="265">- Y-rails mount on top (not shown)</text></svg>